<?xml version="1.0" encoding="UTF-8"?>
<svg version="1.1" xmlns="http://www.w3.org/2000/svg" width="16" height="16">
<path d="M0 0 C5.28 0 10.56 0 16 0 C16 3.63 16 7.26 16 11 C14.35 11.33 12.7 11.66 11 12 C11 12.66 11 13.32 11 14 C9.02 14 7.04 14 5 14 C5 13.34 5 12.68 5 12 C3.35 11.67 1.7 11.34 0 11 C0 7.37 0 3.74 0 0 Z M2 2 C2 4.31 2 6.62 2 9 C3.32 8.67 4.64 8.34 6 8 C5.34 7.67 4.68 7.34 4 7 C4.33 6.01 4.66 5.02 5 4 C5.99 3.67 6.98 3.34 8 3 C8 2.67 8 2.34 8 2 C6.02 2 4.04 2 2 2 Z M9 2 C9.7425 2.680625 9.7425 2.680625 10.5 3.375 C12 5 12 5 12 7 C10.02 7.99 10.02 7.99 8 9 C9.98 9 11.96 9 14 9 C14 6.69 14 4.38 14 2 C12.35 2 10.7 2 9 2 Z M6 5 C7 7 7 7 7 7 Z M9 5 C10 7 10 7 10 7 Z " fill="#38A3B6" transform="translate(0,1)"/>
</svg>
